<svg xmlns="http://www.w3.org/2000/svg" viewBox="0 0 128 128" width="128" height="128" role="img" aria-label="basicly logo: a central catalog block framed by four L-shaped bricks">
  <!-- The versioned YAML catalog: central block, symmetric fragment lines. -->
  <rect x="44" y="44" width="40" height="40" rx="9" fill="#4f46e5"/>
  <rect x="52" y="52" width="24" height="6" rx="3" fill="#a5b4fc"/>
  <rect x="52" y="61" width="24" height="6" rx="3" fill="#a5b4fc"/>
  <rect x="52" y="70" width="24" height="6" rx="3" fill="#a5b4fc"/>
  <!-- Four L-tetrominoes pinwheeled around the catalog corners; amber = the gates. -->
  <path d="M30 8 H74 Q80 8 80 14 V18 Q80 24 74 24 H46 Q40 24 40 30 V34 Q40 40 34 40 H30 Q24 40 24 34 V14 Q24 8 30 8 Z" fill="#6366f1"/>
  <path d="M30 8 H74 Q80 8 80 14 V18 Q80 24 74 24 H46 Q40 24 40 30 V34 Q40 40 34 40 H30 Q24 40 24 34 V14 Q24 8 30 8 Z" transform="rotate(90 64 64)" fill="#818cf8"/>
  <path d="M30 8 H74 Q80 8 80 14 V18 Q80 24 74 24 H46 Q40 24 40 30 V34 Q40 40 34 40 H30 Q24 40 24 34 V14 Q24 8 30 8 Z" transform="rotate(180 64 64)" fill="#f59e0b"/>
  <path d="M30 8 H74 Q80 8 80 14 V18 Q80 24 74 24 H46 Q40 24 40 30 V34 Q40 40 34 40 H30 Q24 40 24 34 V14 Q24 8 30 8 Z" transform="rotate(270 64 64)" fill="#6366f1"/>
</svg>
